<svg width="24" height="25" viewBox="0 0 24 25" fill="none" xmlns="http://www.w3.org/2000/svg">
<path d="M16.5 6.91602H13.5C12.9477 6.91602 12.5 7.36374 12.5 7.91602V10.916H16.5C16.6137 10.9135 16.7216 10.9664 16.7892 11.0579C16.8568 11.1494 16.8758 11.268 16.84 11.376L16.1 13.576C16.0318 13.7779 15.8431 13.9144 15.63 13.916H12.5V21.416C12.5 21.6921 12.2761 21.916 12 21.916H9.5C9.22386 21.916 9 21.6921 9 21.416V13.916H7.5C7.22386 13.916 7 13.6921 7 13.416V11.416C7 11.1399 7.22386 10.916 7.5 10.916H9V7.91602C9 5.70688 10.7909 3.91602 13 3.91602H16.5C16.7761 3.91602 17 4.13988 17 4.41602V6.41602C17 6.69216 16.7761 6.91602 16.5 6.91602Z" fill="#2F3D86"/>
</svg>
