<svg width="21" height="20" viewBox="0 0 21 20" fill="none" xmlns="http://www.w3.org/2000/svg">
<g clip-path="url(#clip0_119_10837)">
<path d="M12.1667 6.66667H13.8333V8.33333C13.8333 8.79167 14.2083 9.16667 14.6667 9.16667C15.125 9.16667 15.5 8.79167 15.5 8.33333V6.66667H17.1667C17.625 6.66667 18 6.29167 18 5.83333C18 5.375 17.625 5 17.1667 5H15.5V3.33333C15.5 2.875 15.125 2.5 14.6667 2.5C14.2083 2.5 13.8333 2.875 13.8333 3.33333V5H12.1667C11.7083 5 11.3333 5.375 11.3333 5.83333C11.3333 6.29167 11.7083 6.66667 12.1667 6.66667ZM16.5083 12.725L14.3917 12.4833C13.8833 12.425 13.3833 12.6 13.025 12.9583L11.4917 14.4917C9.13334 13.2917 7.20001 11.3667 6.00001 9L7.54167 7.45833C7.90001 7.1 8.07501 6.59167 8.01667 6.09167L7.77501 3.99167C7.68334 3.15 6.96667 2.50833 6.12501 2.50833H4.68334C3.74167 2.50833 2.95834 3.29167 3.01667 4.23333C3.45834 11.35 9.15001 17.0333 16.2583 17.475C17.2 17.5333 17.9833 16.75 17.9833 15.8083V14.3667C17.9917 13.5333 17.35 12.8167 16.5083 12.725Z" fill="#2F3D86"/>
</g>
<defs>
<clipPath id="clip0_119_10837">
<rect width="20" height="20" fill="white" transform="translate(0.5)"/>
</clipPath>
</defs>
</svg>
