<svg width="20" height="20" viewBox="0 0 20 20" fill="none" xmlns="http://www.w3.org/2000/svg">
<g clip-path="url(#clip0_119_10832)">
<path d="M16.666 3.33301H3.33268C2.41602 3.33301 1.67435 4.08301 1.67435 4.99967L1.66602 14.9997C1.66602 15.9163 2.41602 16.6663 3.33268 16.6663H16.666C17.5827 16.6663 18.3327 15.9163 18.3327 14.9997V4.99967C18.3327 4.08301 17.5827 3.33301 16.666 3.33301ZM15.8327 14.9997H4.16602C3.70768 14.9997 3.33268 14.6247 3.33268 14.1663V6.66634L9.11602 10.283C9.65768 10.6247 10.341 10.6247 10.8827 10.283L16.666 6.66634V14.1663C16.666 14.6247 16.291 14.9997 15.8327 14.9997ZM9.99935 9.16634L3.33268 4.99967H16.666L9.99935 9.16634Z" fill="#2F3D86"/>
</g>
<defs>
<clipPath id="clip0_119_10832">
<rect width="20" height="20" fill="white"/>
</clipPath>
</defs>
</svg>
