<svg width="24" height="25" viewBox="0 0 24 25" fill="none" xmlns="http://www.w3.org/2000/svg">
<path fill-rule="evenodd" clip-rule="evenodd" d="M5 3.91602H19C20.1046 3.91602 21 4.81145 21 5.91602V19.916C21 21.0206 20.1046 21.916 19 21.916H5C3.89543 21.916 3 21.0206 3 19.916V5.91602C3 4.81145 3.89543 3.91602 5 3.91602ZM8 18.916C8.27614 18.916 8.5 18.6921 8.5 18.416V11.416C8.5 11.1399 8.27614 10.916 8 10.916H6.5C6.22386 10.916 6 11.1399 6 11.416V18.416C6 18.6921 6.22386 18.916 6.5 18.916H8ZM7.25 9.91602C6.42157 9.91602 5.75 9.24445 5.75 8.41602C5.75 7.58759 6.42157 6.91602 7.25 6.91602C8.07843 6.91602 8.75 7.58759 8.75 8.41602C8.75 9.24445 8.07843 9.91602 7.25 9.91602ZM17.5 18.916C17.7761 18.916 18 18.6921 18 18.416V13.816C18.0325 12.2268 16.8576 10.8705 15.28 10.676C14.177 10.5753 13.1083 11.0904 12.5 12.016V11.416C12.5 11.1399 12.2761 10.916 12 10.916H10.5C10.2239 10.916 10 11.1399 10 11.416V18.416C10 18.6921 10.2239 18.916 10.5 18.916H12C12.2761 18.916 12.5 18.6921 12.5 18.416V14.666C12.5 13.8376 13.1716 13.166 14 13.166C14.8284 13.166 15.5 13.8376 15.5 14.666V18.416C15.5 18.6921 15.7239 18.916 16 18.916H17.5Z" fill="#2F3D86"/>
</svg>
