<svg width="24" height="25" viewBox="0 0 24 25" fill="none" xmlns="http://www.w3.org/2000/svg">
<path d="M20.9737 7.63342C20.5093 8.25294 19.9479 8.79335 19.3112 9.23378C19.3112 9.39561 19.3112 9.55744 19.3112 9.72827C19.3163 12.6671 18.1424 15.4851 16.0527 17.5505C13.9629 19.6159 11.1321 20.7559 8.19491 20.7149C6.49685 20.7206 4.82053 20.3329 3.29728 19.5821C3.21514 19.5462 3.16217 19.465 3.16248 19.3753V19.2764C3.16248 19.1473 3.26709 19.0427 3.39613 19.0427C5.06528 18.9876 6.67488 18.4089 7.9972 17.3884C6.48639 17.3579 5.12705 16.4629 4.50146 15.0867C4.46987 15.0116 4.4797 14.9253 4.52743 14.8592C4.57515 14.7931 4.65386 14.7567 4.73511 14.7631C5.19428 14.8092 5.65804 14.7665 6.10106 14.6372C4.43325 14.291 3.18007 12.9064 3.00072 11.2117C2.99435 11.1304 3.03078 11.0517 3.09686 11.0039C3.16293 10.9562 3.2491 10.9463 3.32424 10.978C3.7718 11.1755 4.25495 11.2795 4.7441 11.2836C3.2827 10.3245 2.65147 8.50007 3.20741 6.84224C3.2648 6.68115 3.40267 6.56214 3.57036 6.52896C3.73804 6.49577 3.91082 6.5533 4.02518 6.68041C5.99725 8.77927 8.7069 10.03 11.5828 10.1688C11.5092 9.87487 11.473 9.57278 11.475 9.26974C11.5019 7.68074 12.4851 6.26523 13.9643 5.68589C15.4434 5.10656 17.1258 5.47805 18.2239 6.62646C18.9723 6.48387 19.6959 6.23247 20.3716 5.88023C20.4211 5.84933 20.4839 5.84933 20.5334 5.88023C20.5643 5.92975 20.5643 5.99254 20.5334 6.04206C20.2061 6.79154 19.6532 7.42014 18.9518 7.84021C19.566 7.76898 20.1694 7.62409 20.7491 7.40866C20.7979 7.37544 20.862 7.37544 20.9108 7.40866C20.9517 7.42736 20.9823 7.46313 20.9944 7.50644C21.0065 7.54975 20.9989 7.5962 20.9737 7.63342Z" fill="#2F3D86"/>
</svg>
