<svg width="24" height="25" viewBox="0 0 24 25" fill="none" xmlns="http://www.w3.org/2000/svg">
<path fill-rule="evenodd" clip-rule="evenodd" d="M16 3.91602H8C5.23858 3.91602 3 6.1546 3 8.91602V16.916C3 19.6774 5.23858 21.916 8 21.916H16C18.7614 21.916 21 19.6774 21 16.916V8.91602C21 6.1546 18.7614 3.91602 16 3.91602ZM19.25 16.916C19.2445 18.7086 17.7926 20.1605 16 20.166H8C6.20735 20.1605 4.75549 18.7086 4.75 16.916V8.91602C4.75549 7.12337 6.20735 5.67151 8 5.66602H16C17.7926 5.67151 19.2445 7.12337 19.25 8.91602V16.916ZM16.75 9.16602C17.3023 9.16602 17.75 8.7183 17.75 8.16602C17.75 7.61374 17.3023 7.16602 16.75 7.16602C16.1977 7.16602 15.75 7.61374 15.75 8.16602C15.75 8.7183 16.1977 9.16602 16.75 9.16602ZM12 8.41602C9.51472 8.41602 7.5 10.4307 7.5 12.916C7.5 15.4013 9.51472 17.416 12 17.416C14.4853 17.416 16.5 15.4013 16.5 12.916C16.5027 11.7217 16.0294 10.5756 15.1849 9.7311C14.3404 8.88661 13.1943 8.41336 12 8.41602ZM9.25 12.916C9.25 14.4348 10.4812 15.666 12 15.666C13.5188 15.666 14.75 14.4348 14.75 12.916C14.75 11.3972 13.5188 10.166 12 10.166C10.4812 10.166 9.25 11.3972 9.25 12.916Z" fill="#2F3D86"/>
</svg>
